<svg width="28" height="28" viewBox="0 0 28 28" fill="none" xmlns="http://www.w3.org/2000/svg">
<path fill-rule="evenodd" clip-rule="evenodd" d="M11.3638 8.77175C12.4529 8.20665 13.6925 7.99934 14.9062 8.17931C16.1442 8.36289 17.2903 8.93978 18.1753 9.82476C19.0603 10.7097 19.6372 11.8559 19.8207 13.0939C20.0007 14.3076 19.7934 15.5471 19.2283 16.6362C18.6632 17.7253 17.7691 18.6085 16.6731 19.1601C15.5771 19.7117 14.3351 19.9037 13.1238 19.7088C11.9124 19.5139 10.7933 18.9419 9.92571 18.0743C9.05812 17.2067 8.48618 16.0877 8.29125 14.8763C8.09633 13.6649 8.28834 12.4229 8.83997 11.3269C9.3916 10.231 10.2748 9.33685 11.3638 8.77175ZM14.5639 10.4874C13.8357 10.3794 13.092 10.5038 12.4385 10.8429C11.7851 11.1819 11.2552 11.7184 10.9242 12.376C10.5932 13.0336 10.478 13.7788 10.595 14.5056C10.7119 15.2324 11.0551 15.9039 11.5756 16.4244C12.0962 16.945 12.7676 17.2881 13.4945 17.4051C14.2213 17.5221 14.9665 17.4068 15.6241 17.0759C16.2816 16.7449 16.8181 16.215 17.1572 15.5615C17.4962 14.9081 17.6206 14.1644 17.5126 13.4362C17.4025 12.6933 17.0564 12.0057 16.5254 11.4747C15.9944 10.9437 15.3067 10.5976 14.5639 10.4874Z" fill="#4B6363"/>
<path d="M20.4167 6.41669C19.7723 6.41669 19.25 6.93902 19.25 7.58335C19.25 8.22769 19.7723 8.75002 20.4167 8.75002H20.4283C21.0727 8.75002 21.595 8.22769 21.595 7.58335C21.595 6.93902 21.0727 6.41669 20.4283 6.41669H20.4167Z" fill="#4B6363"/>
<path fill-rule="evenodd" clip-rule="evenodd" d="M1.16663 8.16669C1.16663 4.30069 4.30063 1.16669 8.16663 1.16669H19.8333C23.6993 1.16669 26.8333 4.30069 26.8333 8.16669V19.8334C26.8333 23.6993 23.6993 26.8334 19.8333 26.8334H8.16663C4.30063 26.8334 1.16663 23.6993 1.16663 19.8334V8.16669ZM8.16663 3.50002C5.5893 3.50002 3.49996 5.58936 3.49996 8.16669V19.8334C3.49996 22.4107 5.5893 24.5 8.16663 24.5H19.8333C22.4106 24.5 24.5 22.4107 24.5 19.8334V8.16669C24.5 5.58936 22.4106 3.50002 19.8333 3.50002H8.16663Z" fill="#4B6363"/>
</svg>
