<svg width="28" height="28" viewBox="0 0 28 28" fill="none" xmlns="http://www.w3.org/2000/svg">
<g clip-path="url(#clip0_1881_220)">
<path fill-rule="evenodd" clip-rule="evenodd" d="M5.3161 2.89525C5.31469 2.89092 5.31332 2.88656 5.31199 2.88219L5.3161 2.89525ZM5.95875 4.86832L8.16574 11.643C8.32219 12.1233 8.76993 12.4483 9.27503 12.4483H18.725C19.2305 12.4483 19.6784 12.1229 19.8346 11.6422L22.0346 4.87094L24.2421 11.6655L25.6705 15.8945L14 24.3761L2.37487 15.9274L5.95875 4.86832ZM25.8386 15.9814L25.7445 15.8519C25.7573 15.8352 25.773 15.8206 25.791 15.809L25.8924 15.9657L25.8386 15.9814ZM25.8656 16.0185L26.425 16.7883L25.9157 16.0016L25.8656 16.0185ZM27.0904 17.747L14.6859 26.7621C14.277 27.0593 13.7231 27.0593 13.3141 26.7621L0.889142 17.7321L0.88382 17.7282C0.51895 17.4599 0.248302 17.083 0.110597 16.6515C-0.0266365 16.2215 -0.0248273 15.7592 0.115701 15.3304L4.38545 2.1595C4.39205 2.13919 4.3992 2.11908 4.4069 2.09917C4.49991 1.85869 4.64775 1.64325 4.83866 1.46999C5.14582 1.19039 5.54627 1.0354 5.96169 1.0354C6.37808 1.0354 6.77941 1.1911 7.08685 1.47192C7.09495 1.47932 7.10295 1.48684 7.11084 1.49447C7.30985 1.68682 7.45743 1.92591 7.54022 2.18984L10.122 10.115H17.8774L20.4621 2.1595C20.4687 2.13919 20.4759 2.11908 20.4836 2.09917C20.5766 1.85868 20.7244 1.64324 20.9153 1.46998C21.2225 1.19039 21.6229 1.0354 22.0384 1.0354C22.4547 1.0354 22.8561 1.1911 23.1635 1.47192C23.1716 1.47932 23.1796 1.48684 23.1875 1.49447C23.3867 1.68696 23.5343 1.92625 23.6171 2.19042L26.4591 10.938L27.9387 15.3183C27.941 15.3252 27.9433 15.3322 27.9455 15.3391C27.9483 15.3479 27.9509 15.3567 27.9535 15.3655C28.0826 15.8088 28.0653 16.282 27.9042 16.7147C27.7474 17.1357 27.4627 17.4967 27.0904 17.747ZM20.9153 1.46998C20.916 1.46934 20.9168 1.4687 20.9175 1.46806L21.7 2.33333L20.9132 1.47192C20.9139 1.47128 20.9146 1.47063 20.9153 1.46998ZM22.4826 3.1986L22.4869 3.19474C22.4854 3.19603 22.484 3.19732 22.4826 3.1986Z" fill="#4B6363"/>
</g>
<defs>
<clipPath id="clip0_1881_220">
<rect width="28" height="28" fill="white"/>
</clipPath>
</defs>
</svg>
