<svg width="25" height="25" viewBox="0 0 25 25" fill="none" xmlns="http://www.w3.org/2000/svg">
<g clip-path="url(#clip0_1194_84)">
<path fill-rule="evenodd" clip-rule="evenodd" d="M4.92006 2.54338C4.91885 2.53966 4.91767 2.53593 4.91654 2.53218L4.92006 2.54338ZM5.47091 4.23458L7.36261 10.0415C7.49671 10.4531 7.88048 10.7317 8.31343 10.7317H16.4134C16.8467 10.7317 17.2306 10.4528 17.3645 10.0407L19.2502 4.23682L21.1424 10.0607L22.3666 13.6856L12.3634 20.9555L2.39901 13.7138L5.47091 4.23458ZM22.5107 13.76L22.4301 13.6491C22.4411 13.6347 22.4546 13.6223 22.47 13.6123L22.5569 13.7466L22.5107 13.76ZM22.5339 13.7919L23.0134 14.4517L22.5769 13.7774L22.5339 13.7919ZM23.5837 15.2735L12.9513 23.0007C12.6008 23.2554 12.1261 23.2554 11.7755 23.0007L1.12552 15.2607L1.12096 15.2573C0.808217 15.0273 0.576233 14.7043 0.458201 14.3345C0.340572 13.9659 0.342123 13.5697 0.462575 13.2021L4.12236 1.91273C4.12802 1.89533 4.13415 1.87808 4.14075 1.86102C4.22047 1.65489 4.34719 1.47023 4.51083 1.32172C4.77411 1.08207 5.11735 0.949219 5.47343 0.949219C5.83033 0.949219 6.17433 1.08268 6.43784 1.32338C6.44479 1.32972 6.45165 1.33617 6.45841 1.3427C6.62899 1.50758 6.75549 1.71251 6.82645 1.93874L9.03938 8.73173H15.6869L17.9024 1.91273C17.908 1.89533 17.9141 1.87808 17.9207 1.86102C18.0005 1.65489 18.1272 1.47023 18.2908 1.32172C18.5541 1.08207 18.8973 0.949219 19.2534 0.949219C19.6103 0.949219 19.9543 1.08268 20.2178 1.32338C20.2248 1.32972 20.2316 1.33617 20.2384 1.3427C20.4091 1.50769 20.5357 1.7128 20.6066 1.93923L23.0427 9.43712L24.3108 13.1917C24.3128 13.1977 24.3148 13.2036 24.3167 13.2096C24.3191 13.2171 24.3213 13.2246 24.3235 13.2321C24.4342 13.6121 24.4194 14.0177 24.2813 14.3886C24.1469 14.7495 23.9028 15.0589 23.5837 15.2735ZM18.2908 1.32172C18.2914 1.32117 18.292 1.32062 18.2927 1.32007L18.9634 2.06173L18.289 1.32338C18.2896 1.32283 18.2902 1.32227 18.2908 1.32172ZM19.6342 2.80339L19.6378 2.80008C19.6366 2.80119 19.6354 2.80229 19.6342 2.80339Z" fill="#4B6363"/>
</g>
<defs>
<clipPath id="clip0_1194_84">
<rect width="24" height="24" fill="white" transform="translate(0.363281 0.0617065)"/>
</clipPath>
</defs>
</svg>
