<svg width="25" height="25" viewBox="0 0 25 25" fill="none" xmlns="http://www.w3.org/2000/svg">
<path fill-rule="evenodd" clip-rule="evenodd" d="M10.1038 7.58033C11.0373 7.09596 12.0997 6.91826 13.14 7.07253C14.2012 7.22989 15.1836 7.72436 15.9421 8.48291C16.7007 9.24147 17.1952 10.2239 17.3525 11.285C17.5068 12.3253 17.3291 13.3878 16.8447 14.3213C16.3603 15.2548 15.594 16.0118 14.6546 16.4846C13.7152 16.9574 12.6506 17.122 11.6123 16.9549C10.5739 16.7879 9.61472 16.2976 8.87107 15.554C8.12742 14.8103 7.63719 13.8511 7.47011 12.8128C7.30303 11.7745 7.4676 10.7099 7.94043 9.7705C8.41326 8.8311 9.17025 8.06471 10.1038 7.58033ZM12.8467 9.0509C12.2225 8.95834 11.585 9.06495 11.0249 9.35558C10.4648 9.6462 10.0106 10.106 9.7269 10.6697C9.4432 11.2333 9.34446 11.8721 9.44471 12.4951C9.54495 13.1181 9.83909 13.6936 10.2853 14.1398C10.7315 14.586 11.307 14.8801 11.93 14.9803C12.553 15.0806 13.1917 14.9818 13.7554 14.6982C14.319 14.4145 14.7788 13.9603 15.0695 13.4002C15.3601 12.8401 15.4667 12.2026 15.3742 11.5784C15.2797 10.9417 14.9831 10.3523 14.5279 9.89713C14.0728 9.44199 13.4833 9.14531 12.8467 9.0509Z" fill="#4B6363"/>
<path d="M17.8633 5.56171C17.311 5.56171 16.8633 6.00942 16.8633 6.56171C16.8633 7.11399 17.311 7.56171 17.8633 7.56171H17.8733C18.4256 7.56171 18.8733 7.11399 18.8733 6.56171C18.8733 6.00942 18.4256 5.56171 17.8733 5.56171H17.8633Z" fill="#4B6363"/>
<path fill-rule="evenodd" clip-rule="evenodd" d="M1.36328 7.06171C1.36328 3.748 4.04957 1.06171 7.36328 1.06171H17.3633C20.677 1.06171 23.3633 3.748 23.3633 7.06171V17.0617C23.3633 20.3754 20.677 23.0617 17.3633 23.0617H7.36328C4.04957 23.0617 1.36328 20.3754 1.36328 17.0617V7.06171ZM7.36328 3.06171C5.15414 3.06171 3.36328 4.85257 3.36328 7.06171V17.0617C3.36328 19.2708 5.15414 21.0617 7.36328 21.0617H17.3633C19.5724 21.0617 21.3633 19.2708 21.3633 17.0617V7.06171C21.3633 4.85257 19.5724 3.06171 17.3633 3.06171H7.36328Z" fill="#4B6363"/>
</svg>
