<svg width="25" height="25" viewBox="0 0 25 25" fill="none" xmlns="http://www.w3.org/2000/svg">
<g clip-path="url(#clip0_1194_83)">
<path fill-rule="evenodd" clip-rule="evenodd" d="M14.8889 2.41187C15.9377 2.01156 17.0841 1.94302 18.1731 2.21551C19.0392 2.4322 19.8356 2.85624 20.496 3.44678C21.3082 3.14826 22.0785 2.74425 22.787 2.24452L23.3799 1.75421C23.7403 1.45621 24.214 1.53996 24.2964 2.00029V2.00029C24.4033 2.59717 24.335 3.2983 24.335 3.2983C23.9925 4.70482 23.3058 6.00125 22.3403 7.07265C22.3551 7.23405 22.3628 7.39612 22.3634 7.55837L22.3634 7.56168C22.3634 13.6616 19.4265 18.1367 15.2082 20.3819C11.0143 22.6142 5.65426 22.5894 0.877741 19.9358C0.47293 19.7109 0.275485 19.2375 0.400533 18.7916C0.525582 18.3457 0.940408 18.0441 1.40313 18.0625C3.08994 18.1296 4.75975 17.7941 6.27812 17.0946C4.77497 16.1671 3.6928 15.0659 2.94044 13.878C1.93681 12.2933 1.55794 10.6146 1.48942 9.10709C1.42109 7.60396 1.65986 6.25058 1.91086 5.28005C2.03696 4.79245 2.1678 4.39518 2.26866 4.11621C2.31915 3.97656 2.36229 3.86609 2.39383 3.78826C2.4096 3.74933 2.42248 3.71852 2.43194 3.69627L2.44351 3.66934L2.44647 3.66259C2.45351 3.64641 2.46101 3.63036 2.46896 3.61446V3.61446C2.80663 2.95496 3.71738 2.87474 4.16513 3.46507L4.18174 3.48697C5.09728 4.79065 6.32103 5.84767 7.74399 6.56389C8.87584 7.13359 10.1058 7.4736 11.3631 7.56809C11.3557 6.45843 11.6854 5.37234 12.309 4.45374C12.9395 3.52493 13.8401 2.81218 14.8889 2.41187ZM3.76803 6.10529C3.58434 6.90665 3.43765 7.92292 3.48735 9.01627C3.54383 10.2588 3.85246 11.5801 4.63008 12.8079C5.40367 14.0293 6.67943 15.2189 8.76952 16.1479C9.10133 16.2953 9.32712 16.6111 9.35942 16.9727C9.39172 17.3344 9.22544 17.6851 8.92501 17.8891C7.81408 18.6432 6.59759 19.2105 5.32348 19.5774C8.49365 20.385 11.6704 19.9993 14.2685 18.6164C17.7999 16.7368 20.3629 12.9625 20.3634 7.56335C20.3626 7.34725 20.3417 7.13169 20.3012 6.91943C20.2385 6.59157 20.3435 6.25406 20.5812 6.01967C20.804 5.79999 21.0103 5.56584 21.1991 5.31918C20.9726 5.40273 20.7433 5.47946 20.5117 5.54921C20.1351 5.66262 19.727 5.54471 19.4688 5.24792C19.001 4.71 18.3793 4.32874 17.6877 4.1557C16.9961 3.98266 16.2681 4.02618 15.6021 4.28039C14.936 4.5346 14.3641 4.98723 13.9637 5.57705C13.5633 6.16688 13.3537 6.86545 13.3633 7.57827L13.3635 7.59168L13.3634 8.59168C13.3634 9.13387 12.9313 9.57729 12.3893 9.59134C10.4671 9.64119 8.56237 9.21487 6.8448 8.35036C5.69923 7.77376 4.66063 7.01416 3.76803 6.10529Z" fill="#4B6363"/>
</g>
<defs>
<clipPath id="clip0_1194_83">
<rect width="24" height="24" fill="white" transform="translate(0.363281 0.0617065)"/>
</clipPath>
</defs>
</svg>
