<svg width="28" height="28" viewBox="0 0 28 28" fill="none" xmlns="http://www.w3.org/2000/svg">
<g clip-path="url(#clip0_1881_216)">
<path fill-rule="evenodd" clip-rule="evenodd" d="M16.9464 2.7419C18.17 2.27487 19.5075 2.19491 20.7781 2.51281C21.7884 2.76562 22.7176 3.26033 23.488 3.9493C24.4356 3.60103 25.3343 3.12968 26.1609 2.54665L27.5989 1.35754C27.5989 1.35754 27.7972 1.56536 27.9219 2.26172C28.0465 2.95808 27.9669 3.77606 27.9669 3.77606C27.5672 5.41701 26.7662 6.9295 25.6397 8.17947C25.657 8.36778 25.666 8.55685 25.6667 8.74615L25.6667 8.75001C25.6667 15.8666 22.2403 21.0875 17.319 23.707C12.4261 26.3112 6.17268 26.2824 0.600082 23.1865C0.127802 22.9241 -0.102551 22.3718 0.0433385 21.8516C0.189229 21.3314 0.673192 20.9794 1.21303 21.0009C3.18098 21.0792 5.1291 20.6879 6.90052 19.8718C5.14685 18.7897 3.88432 17.505 3.00656 16.119C1.83566 14.2702 1.39364 12.3117 1.3137 10.553C1.23399 8.79934 1.51256 7.22039 1.80539 6.0881C1.95251 5.51925 2.10515 5.05576 2.22282 4.73029C2.28172 4.56737 2.33206 4.43849 2.36885 4.34769C2.38724 4.30227 2.40227 4.26633 2.41332 4.24036L2.42682 4.20895L2.43026 4.20107C2.43848 4.1822 2.44723 4.16347 2.4565 4.14493L3.30726 2.4833L4.45475 3.99618C5.52288 5.51714 6.95058 6.75033 8.6107 7.58592C9.9312 8.25057 11.3661 8.64725 12.833 8.75749C12.8244 7.46289 13.209 6.19578 13.9365 5.12408C14.6722 4.04047 15.7228 3.20892 16.9464 2.7419ZM3.97209 7.05088C3.75778 7.98581 3.58665 9.17145 3.64463 10.447C3.71052 11.8966 4.07059 13.4381 4.97781 14.8706C5.88033 16.2956 7.36871 17.6835 9.80716 18.7672C10.1943 18.9393 10.4577 19.3076 10.4954 19.7296C10.5331 20.1515 10.3391 20.5607 9.98857 20.7986C8.69247 21.6784 7.27323 22.3403 5.78678 22.7683C9.48531 23.7106 13.1915 23.2606 16.2227 21.6472C20.3426 19.4544 23.3327 15.051 23.3333 8.75195C23.3324 8.49984 23.3081 8.24835 23.2607 8.00072C23.1876 7.61821 23.3102 7.22445 23.5875 6.951C23.8474 6.6947 24.0881 6.42153 24.3083 6.13376C24.044 6.23124 23.7766 6.32075 23.5064 6.40213C23.067 6.53444 22.5908 6.39688 22.2897 6.05062C21.7439 5.42305 21.0185 4.97825 20.2117 4.77636C19.4048 4.57448 18.5555 4.62526 17.7784 4.92184C17.0014 5.21842 16.3342 5.74648 15.8671 6.43461C15.3999 7.12274 15.1554 7.93774 15.1666 8.76937L15.1668 8.78501L15.1667 9.95168C15.1667 10.5842 14.6626 11.1016 14.0302 11.118C11.7876 11.1761 9.56548 10.6787 7.56165 9.67014C6.22515 8.99743 5.01345 8.11124 3.97209 7.05088Z" fill="#4B6363"/>
</g>
<defs>
<clipPath id="clip0_1881_216">
<rect width="28" height="28" fill="white"/>
</clipPath>
</defs>
</svg>
